<?xml version="1.0" encoding="utf-8"?>
<!-- Generator: Adobe Illustrator 26.0.3, SVG Export Plug-In . SVG Version: 6.00 Build 0)  -->
<svg version="1.1" id="Layer_1" xmlns="http://www.w3.org/2000/svg" xmlns:xlink="http://www.w3.org/1999/xlink" x="0px" y="0px"
	 viewBox="0 0 595.3 841.9" style="enable-background:new 0 0 595.3 841.9;" xml:space="preserve">
<style type="text/css">
	.st0{fill:#D7602B;}
	.st1{fill:#747175;}
	.st2{fill:#4B4C4D;}
	.st3{fill:#AFB0B5;}
	.st4{fill:#F6BD2B;}
</style>
<path class="st0" d="M341.5,395.2c-1.1,3.8-0.5,7.6-0.5,11.4c0.4,26.2-22.3,45.8-48,41.4c-3.6-0.6-7.3-0.7-10.6-2.4
	c-0.7-2.9-1.5-5.8-2.2-8.7c10.2-5.5,20.4-11,30.6-16.6c10.5-5.7,14.6-16,10.3-26.8c-1.5-3.7,0.2-3.8,2.8-3.9
	C330.2,390.1,336,392,341.5,395.2z"/>
<path class="st1" d="M323.9,389.6c-2.6,0.1-4.3,0.2-2.8,3.9c4.4,10.8,0.3,21.1-10.3,26.8c-10.2,5.5-20.4,11-30.6,16.6
	c-1.3,0.4-2.6,0.7-3.9,1.1c-4.2,0.5-7.6-1.1-10.4-4.2c9.7-12.7,19.3-25.4,29-38c3.8-5,7.9-9.9,11.8-14.8
	C313.2,382.3,316.7,389.5,323.9,389.6z"/>
<path class="st2" d="M323.9,389.6c-7.1-0.1-10.7-7.2-17.1-8.7c3.1-5.3,6.8-10.1,11.3-14.3c10.8-10,27.4-7.6,36.1,5.1
	c-1.7,3.1-1.8,6.4-1.1,9.8c-5.4,3.2-9.5,7.7-11.5,13.8C336,392,330.2,390.1,323.9,389.6z"/>
<path class="st2" d="M266,433.7c2.8,3.1,6.2,4.7,10.4,4.2c-0.8,1.9-2.7,2.3-4.2,3.2c-4.2,2.4-8.3,4.8-12.5,7.2
	c-0.6,0.4-2.2,0-1.7,1.2c0.3,0.8,1.7,0.3,2.4-0.4c4.5-0.1,8.8-3.2,13.5-1.5c-12,4.6-21.3,13.2-30.9,21.4c-3.2,2.8-6.4,5.6-9.6,8.5
	c-1.3-1.6-0.1-2.4,0.5-3.2c6.2-7.3,11.8-15.1,17.9-22.5C256.7,446.1,260.8,439.4,266,433.7z"/>
<path class="st3" d="M259.6,448.4c4.2-2.4,8.3-4.8,12.5-7.2c1.5-0.9,3.5-1.3,4.2-3.2c1.3-0.4,2.6-0.7,3.9-1.1
	c0.7,2.9,1.5,5.8,2.2,8.7c-2.9,0.7-5.7,1.4-8.6,2.1c-4.7-1.7-9,1.4-13.5,1.5C260.1,448.9,259.9,448.6,259.6,448.4z"/>
<path class="st4" d="M353,381.4c-0.6-3.4-0.6-6.7,1.1-9.8c4.8,0.9,8.8,3.1,11.8,7.8C361.4,379.9,357,379.8,353,381.4z"/>
<path class="st3" d="M260.3,449.2c-0.7,0.7-2.1,1.2-2.4,0.4c-0.5-1.2,1.1-0.8,1.7-1.2C259.9,448.6,260.1,448.9,260.3,449.2z"/>
</svg>
